/* XPM */
static char *slingshot[] = {
/* columns rows colors chars-per-pixel */
"32 32 256 2",
"   c #0E0907",
".  c #090C0A",
"X  c #120504",
"o  c #1F0504",
"O  c #0A100E",
"+  c #0D1412",
"@  c #131B17",
"#  c #280808",
"$  c #370707",
"%  c #340B0B",
"&  c #221312",
"*  c #231C19",
"=  c #391110",
"-  c #3F1C1A",
";  c #1A241F",
":  c #3E201D",
">  c #1B2521",
",  c #1F2C26",
"<  c #292420",
"1  c #252824",
"2  c #3A2825",
"3  c #26342E",
"4  c #2F3F38",
"5  c #2D3C36",
"6  c #3A3833",
"7  c #420202",
"8  c #560B0B",
"9  c #4E100F",
"0  c #491312",
"q  c #421F1B",
"w  c #5B1818",
"e  c #521616",
"r  c #6D0202",
"t  c #610B0A",
"y  c #700606",
"u  c #740C0C",
"i  c #7B0A0A",
"p  c #601E1E",
"a  c #691F1E",
"s  c #761010",
"d  c #791515",
"f  c #7D1C1C",
"g  c #61201F",
"h  c #422C27",
"j  c #502321",
"k  c #582622",
"l  c #5E342F",
"z  c #433832",
"x  c #4E3A35",
"c  c #5C3A34",
"v  c #662222",
"b  c #6C2B2B",
"n  c #642A28",
"m  c #742323",
"M  c #6E3B33",
"N  c #7A3130",
"B  c #34433C",
"V  c #3E433D",
"C  c #44433C",
"Z  c #63473F",
"A  c #7C423F",
"S  c #3F4E40",
"D  c #3D5E4E",
"F  c #3C6150",
"G  c #474741",
"H  c #4B4D46",
"J  c #5A4E41",
"K  c #445647",
"L  c #4D5847",
"P  c #405049",
"I  c #435F4D",
"U  c #52554E",
"Y  c #4A5D54",
"T  c #5A5E53",
"R  c #67564B",
"E  c #7C5B4E",
"W  c #56604F",
"Q  c #456254",
"!  c #4C6B57",
"~  c #4D6158",
"^  c #4D6E5E",
"/  c #54645B",
"(  c #546B5B",
")  c #5F6B58",
"_  c #576453",
"`  c #636352",
"'  c #6B6253",
"]  c #6F665D",
"[  c #7E6458",
"{  c #736B5C",
"}  c #786254",
"|  c #75725E",
" . c #516E60",
".. c #5A6E65",
"X. c #4C7461",
"o. c #537564",
"O. c #5C7464",
"+. c #5E786C",
"@. c #616D62",
"#. c #617764",
"$. c #6C7365",
"%. c #6E7966",
"&. c #627A6D",
"*. c #6E7A6F",
"=. c #657169",
"-. c #7C7767",
";. c #757C6F",
":. c #7E7C6F",
">. c #637D71",
",. c #850909",
"<. c #8A1616",
"1. c #991010",
"2. c #812424",
"3. c #832A2A",
"4. c #9F2424",
"5. c #813131",
"6. c #8C3332",
"7. c #823A34",
"8. c #803B39",
"9. c #B52A2A",
"0. c #BF3F3D",
"q. c #8D403F",
"w. c #834B44",
"e. c #924342",
"r. c #994D4B",
"t. c #82584F",
"y. c #815F51",
"u. c #995A50",
"i. c #A24C4A",
"p. c #A55452",
"a. c #AF5351",
"s. c #A75F59",
"d. c #A35E57",
"f. c #B35650",
"g. c #BB5655",
"h. c #856556",
"j. c #8C6C5C",
"k. c #89655A",
"l. c #996257",
"z. c #9D665B",
"x. c #9E6A5D",
"c. c #946359",
"v. c #A26B5F",
"b. c #B6615F",
"n. c #B9635F",
"m. c #8A6C60",
"M. c #996B60",
"N. c #877566",
"B. c #8B7062",
"V. c #847F6F",
"C. c #997064",
"Z. c #9A7168",
"A. c #997B6D",
"S. c #8D7C72",
"D. c #9A7F72",
"F. c #AF6C63",
"G. c #B36C61",
"H. c #BB6D64",
"J. c #B96564",
"K. c #A5776D",
"L. c #BD766F",
"P. c #B1756B",
"I. c #BD7D75",
"U. c #D35252",
"Y. c #C26A67",
"T. c #C97470",
"R. c #CD7A74",
"E. c #CA7E79",
"W. c #D97776",
"Q. c #D27874",
"!. c #D17D7A",
"~. c #E77B7B",
"^. c #59806D",
"/. c #5B8471",
"(. c #5C8B75",
"). c #6E8976",
"_. c #648A78",
"`. c #6B8B7D",
"'. c #658572",
"]. c #738A7C",
"[. c #7B8B7C",
"{. c #758475",
"}. c #848071",
"|. c #8C8272",
" X c #8A8A79",
".X c #868C7E",
"XX c #9B8779",
"oX c #938172",
"OX c #AC8278",
"+X c #D9807C",
"@X c #6F8D80",
"#X c #788E83",
"$X c #738F82",
"%X c #6F9D88",
"&X c #6C9985",
"*X c #759485",
"=X c #7C9284",
"-X c #7F9789",
";X c #759B89",
":X c #7A9C8C",
">X c #78A28E",
",X c #7CA492",
"<X c #7CAA94",
"1X c #839283",
"2X c #8E9181",
"3X c #83958A",
"4X c #89998E",
"5X c #929A8E",
"6X c #869C90",
"7X c #889D90",
"8X c #969D90",
"9X c #A49F91",
"0X c #AC9F90",
"qX c #82A494",
"wX c #8CA194",
"eX c #83AA96",
"rX c #8EA598",
"tX c #84AD9A",
"yX c #8AAB9B",
"uX c #91A396",
"iX c #9EA699",
"pX c #91AB9D",
"aX c #87B59F",
"sX c #8DB19F",
"dX c #A6A79A",
"fX c #8CB5A1",
"gX c #8DB8A2",
"hX c #92B4A3",
"jX c #91BDA6",
"kX c #96BCA9",
"lX c #9ABBAA",
"zX c #DB8481",
"xX c #D48984",
"cX c #DE8985",
"vX c #D48E88",
"bX c #DE8A89",
"nX c #ED8281",
"mX c #E5908D",
"MX c #E8908E",
"NX c #EC9393",
"BX c #E79897",
"VX c #EB9D9A",
"CX c #F1A5A4",
"ZX c #F5B3B3",
"AX c #9EC0AD",
"SX c #96C0AB",
"DX c #9FC4B0",
"FX c #9FC9B3",
"GX c #A1C4B1",
"HX c #A4C9B4",
"JX c #B2D4BF",
"KX c #B3D4C1",
"LX c #F8C3C3",
"PX c #FBD7D7",
"IX c #FBE2E2",
"UX c None",
/* pixels */
"UXUXUXUXUXUXUXUXUXUXUXUXUXUXUXUXUXUXUXUXUXUXUXUXUXUXUXf s r u 3.",
"UXUXUXUXUXUXUXUXUXUXUXUXUXUXUXUXUXUXUXUXUXUXUXUXUXf d 2.UXUXu y ",
"UXUXUXUXUXUXUXUXUXUXUXUXUXUXUXUXUXUXUXUXUXUXUXUXd UXUXUXUXUXd u ",
"UXUXUXUXUXUXUXUXUXUXUXUXUXUXUXUXUXUXUXUXUXUXd 3.UXUXUXUXUXUXd s ",
"UXUXUXUXUXUXUXUXUXUXUXUXUXUXUXUXUXUXUXUXUX<.UXUXUXUXUXUXUXUXr UX",
"UXUXUXUXUXUXUXUXUXUXUXUXUXUXUXUXUXUXUXm 2.UXUXUXUXUXUXUXUX2.u UX",
"UXUXUXUXUXUXUXUXUXUXUXUXUXUXUXUXUXUXf UXUXUXUXUXUXUXUXUXUXy m UX",
"UXUXUXUXUXUXUXUXUXUXUXUXUXUXUXUXUXd UXUXUXUXUXUXUXUXUXUX2.y UXUX",
"UXUXUXUXUXUXUXUXtXtXfXyX6XwXpXrXE UXUXUXUXUXUXUXUXUXUXUXr UXUXUX",
"UXUXUXUXUXUXyX;X;X;X:X$X=X3X6X6X3X#X{.UXUXUXUXUXUXUXUXu f UXUXUX",
"UXUXUXUXUXyXGXHXgX<X_.+.&.`.:XeX3X3X=./ UXUXUXUXUXUX6.r UXUXUXUX",
"UXUXUXUXaXFXJXjX<X&Xo.X. .&.=XwX8X3X*.U G UXUXUXUXe.r UXUXUXUXUX",
"UXUXUXsXGXKXfX:X@X^.o. .O.#.)..X3X1X:.T C 6 UXUXUXr d UXUXUXUXUX",
"UXUXqXhXKXjX>X_././.O.&.'.;.{. X XV.-.' x 2 2 UXi d UXUXUXUXUXUX",
"UXUX;XlXHX%X^.o.^ X.( #.%.}.|.oXXXB.B.[ c q 2 i i UXUXUXUXUXUXUX",
"UXsX,XhX<X(.X.Q F ! ~ _ { N.A.x.OXz.M.u.M k <.,.UXUXUXUXUXUXUXUX",
"UXeX;XqXgXeXX.F K I W ) } j.P.v.I.H.G.s.5.4.1.p UXUXUXUXUXUXUXUX",
"UXaX>X<XSXkX(.F C K _ { y.l.G.E.E.R.T.f.0.9.6.j UXUXUXUXUXUXUXUX",
"UXgXeXtXGXDXeX! I L Z } C.P.Y.Q.!.mX!.U.U.g.8.e t UXUXUXUXUXUXUX",
"UXjXsXsXSXDXSX'.( W R E l.L.vXzXMXVXnX~.W.i.3.p m UXUXUXUXUXUXUX",
"UXjXhXlXlXHXAX.X^.) ` y.v.L.xXBXZXPXZXNX!.J.r.b m UXUXUXUXUXUXUX",
"UXyXhXpXlXDXhX5X X%.| h.z.H.!.mXZXIXLXBX!.b.e.b UXUXUXUXUXUXUXUX",
"UX*XeXrXsXhXpX5XiX X|.j.z.I.vXcXVXCXNXbX!.J.q.v UXUXUXUXUXUXUXUX",
"UX].>.*X=X3X.XuXiXdX0XoXK.F.J.xXcXzXW.T.b.p.N n UXUXUXUXUXUXUXUX",
"UXUX..&.].#X3X6X4XdX9XXXy.u.I.L.Y.Y.J.f.r.5.b 3.UXUXUXUXUXUXUXUX",
"UXUX>.( +.`.$X*X[.#X.X|.m.K.z.d.i.p.i.6.5.a 9 UXUXUXUXUXUXUXUXUX",
"UXUXUXY Y ..&.>.`.{.{.:.S.m.t.w.8.8.N a w 0 UXUXUXUXUXUXUXUXUXUX",
"UXUXUXUXS P ~ Q Q ( ..$.] R Z l n k e 0 $ 8 UXUXUXUXUXUXUXUXUXUX",
"UXUXUXUXUX3 5 4 B B V H G z h - q = % # 7 UXUXUXUXUXUXUXUXUXUXUX",
"UXUXUXUXUXUX1 > > > > 1 < * & & # o o UXUXUXUXUXUXUXUXUXUXUXUXUX",
"UXUXUXUXUXUXUXUX@ + + O .   X X X UXUXUXUXUXUXUXUXUXUXUXUXUXUXUX",
"UXUXUXUXUXUXUXUXUXUXUXUXUXUXUXUXUXUXUXUXUXUXUXUXUXUXUXUXUXUXUXUX"
};
